<svg id="_001-process" data-name="001-process" xmlns="http://www.w3.org/2000/svg" xmlns:xlink="http://www.w3.org/1999/xlink" width="99.564" height="99.564" viewBox="0 0 99.564 99.564">
  <defs>
    <linearGradient id="linear-gradient" x1="-0.034" y1="0.091" x2="1.054" y2="1.122" gradientUnits="objectBoundingBox">
      <stop offset="0" stop-color="#7e76f9"/>
      <stop offset="1" stop-color="#b2adfc"/>
    </linearGradient>
  </defs>
  <path id="Path_474" data-name="Path 474" d="M316.965,300.546V288.417l-4.646-1.187c-.032-.078-.064-.157-.1-.234l2.446-4.122L306.09,274.3l-4.122,2.446-.234-.1L300.546,272H288.417l-1.187,4.646c-.078.032-.157.064-.234.1l-4.122-2.446-8.577,8.577L276.742,287c-.034.079-.066.158-.1.234L272,288.419v12.129l4.646,1.187c.032.078.064.157.1.234l-2.446,4.122,8.577,8.577L287,312.222l.234.1,1.187,4.644h12.129l1.187-4.646c.078-.032.157-.064.234-.1l4.122,2.446,8.577-8.577-2.446-4.122c.034-.079.066-.158.1-.234Zm-6.332,5.038-5.049,5.049-3.432-2.036-.772.369a16.087,16.087,0,0,1-1.531.634l-.809.287-.986,3.866h-7.142l-.986-3.866-.809-.287a15.146,15.146,0,0,1-1.531-.634l-.772-.369-3.432,2.036-5.049-5.049,2.036-3.432-.369-.772a16.063,16.063,0,0,1-.634-1.531l-.287-.809-3.867-.986v-7.142l3.866-.986.287-.809a15.139,15.139,0,0,1,.634-1.531l.369-.772-2.036-3.432,5.049-5.049,3.432,2.036.772-.369a16.067,16.067,0,0,1,1.531-.634l.809-.287.986-3.867h7.142l.986,3.866.809.287a15.136,15.136,0,0,1,1.531.634l.772.369,3.432-2.036,5.049,5.049-2.036,3.432.369.772a16.075,16.075,0,0,1,.634,1.531l.287.809,3.867.986v7.142l-3.866.986-.287.809a15.151,15.151,0,0,1-.634,1.531l-.369.772Zm0,0" transform="translate(-217.4 -217.4)" fill="url(#linear-gradient)"/>
  <path id="Path_475" data-name="Path 475" d="M332.847,320a12.847,12.847,0,1,0,12.847,12.847A12.862,12.862,0,0,0,332.847,320Zm0,22.482a9.635,9.635,0,1,1,9.635-9.635A9.645,9.645,0,0,1,332.847,342.482Zm0,0" transform="translate(-255.765 -255.765)" fill="url(#linear-gradient)"/>
  <path id="Path_476" data-name="Path 476" d="M358.423,352a6.424,6.424,0,1,0,6.424,6.424A6.43,6.43,0,0,0,358.423,352Zm0,9.635a3.212,3.212,0,1,1,3.212-3.212A3.215,3.215,0,0,1,358.423,361.635Zm0,0" transform="translate(-281.341 -281.341)" fill="url(#linear-gradient)"/>
  <path id="Path_477" data-name="Path 477" d="M162.158,27.191a9.651,9.651,0,0,0,2.69,4.059v1.362l-7.636,2.863A8.064,8.064,0,0,0,152,42.993v8.4h38.541v-8.4a8.069,8.069,0,0,0-5.21-7.519l-7.637-2.863V31.25a9.632,9.632,0,0,0,2.689-4.059,6.421,6.421,0,0,0,5.34-6.315V14.453a14.453,14.453,0,0,0-28.906,0v6.424A6.421,6.421,0,0,0,162.158,27.191Zm12.325,6.088-3.212,5.352-3.212-5.352v-.118a9.455,9.455,0,0,0,6.424,0ZM165.764,35.7,169,41.091,165.785,42.7l-2.078-6.231Zm21.566,7.3v5.184H155.212V42.993a4.84,4.84,0,0,1,3.126-4.511L160.7,37.6l3.21,9.632,7.361-3.681,7.361,3.681,3.21-9.632,2.363.886a4.837,4.837,0,0,1,3.125,4.509Zm-8.5-6.525L176.757,42.7l-3.216-1.607,3.238-5.4Zm-7.564-5.956a6.43,6.43,0,0,1-6.424-6.424V17.556a12.431,12.431,0,0,0,6.424-2.563,12.418,12.418,0,0,0,6.424,2.563v6.533A6.43,6.43,0,0,1,171.271,30.512Zm9.635-6.87v-5.53a3.183,3.183,0,0,1,0,5.53Zm-9.635-20.43a11.255,11.255,0,0,1,11.241,11.241v.893a6.353,6.353,0,0,0-3.212-.893h-.276a9.293,9.293,0,0,1-6.618-2.741l-1.135-1.137-1.135,1.137a9.3,9.3,0,0,1-6.618,2.741h-.276a6.353,6.353,0,0,0-3.212.893v-.893A11.255,11.255,0,0,1,171.271,3.212Zm-9.635,14.9v5.53a3.183,3.183,0,0,1,0-5.53Zm0,0" transform="translate(-121.489 0)" fill="url(#linear-gradient)"/>
  <path id="Path_478" data-name="Path 478" d="M0,329.753H32.118V288H0Zm3.212-38.541H28.906v35.329H3.212Zm0,0" transform="translate(0 -230.188)" fill="url(#linear-gradient)"/>
  <path id="Path_479" data-name="Path 479" d="M32,320H51.271v3.212H32Zm0,0" transform="translate(-25.576 -255.765)" fill="url(#linear-gradient)"/>
  <path id="Path_480" data-name="Path 480" d="M32,352h3.212v3.212H32Zm0,0" transform="translate(-25.576 -281.341)" fill="url(#linear-gradient)"/>
  <path id="Path_481" data-name="Path 481" d="M64,352H76.847v3.212H64Zm0,0" transform="translate(-51.153 -281.341)" fill="url(#linear-gradient)"/>
  <path id="Path_482" data-name="Path 482" d="M32,384H51.271v3.212H32Zm0,0" transform="translate(-25.576 -306.918)" fill="url(#linear-gradient)"/>
  <path id="Path_483" data-name="Path 483" d="M32,416H51.271v3.212H32Zm0,0" transform="translate(-25.576 -332.494)" fill="url(#linear-gradient)"/>
  <path id="Path_484" data-name="Path 484" d="M112,448h3.212v3.212H112Zm0,0" transform="translate(-89.518 -358.071)" fill="url(#linear-gradient)"/>
  <path id="Path_485" data-name="Path 485" d="M32,448H44.847v3.212H32Zm0,0" transform="translate(-25.576 -358.071)" fill="url(#linear-gradient)"/>
  <path id="Path_486" data-name="Path 486" d="M174.517,348.614l-2.271-2.271-7.559,7.559,7.559,7.559,2.271-2.271-3.682-3.682h12.182V352.3H170.835Zm0,0" transform="translate(-131.629 -276.82)" fill="url(#linear-gradient)"/>
  <path id="Path_487" data-name="Path 487" d="M75.212,85.114a1.608,1.608,0,0,1,1.606-1.606h7.364L80.5,87.191l2.271,2.271L90.33,81.9l-7.559-7.559L80.5,76.615,84.182,80.3H76.818A4.824,4.824,0,0,0,72,85.114V114.02h3.212Zm0,0" transform="translate(-57.547 -59.42)" fill="url(#linear-gradient)"/>
  <path id="Path_488" data-name="Path 488" d="M345.635,108.818v20.212l-3.682-3.682-2.271,2.271,7.559,7.559,7.559-7.559-2.271-2.271-3.682,3.682V108.818A4.824,4.824,0,0,0,344.029,104H336v3.212h8.029A1.608,1.608,0,0,1,345.635,108.818Zm0,0" transform="translate(-268.553 -83.124)" fill="url(#linear-gradient)"/>
</svg>
