<svg xmlns="http://www.w3.org/2000/svg" width="47" height="47" viewBox="0 0 47 47">
  <g id="Group_208" data-name="Group 208" transform="translate(-0.172 0.1)">
    <rect id="Rectangle_660" data-name="Rectangle 660" width="47" height="47" rx="10" transform="translate(0.172 -0.1)" fill="#db327f" opacity="0.1"/>
    <g id="Group_179" data-name="Group 179" transform="translate(11.172 15.9)">
      <path id="Path_189" data-name="Path 189" d="M37.2,27.828,36.06,25.176a2.619,2.619,0,0,0-2.418-1.586H31.8v-.676A1.015,1.015,0,0,0,30.782,21.9h-12.9a.671.671,0,0,0-.676.676.688.688,0,0,0,.676.676H30.392v4.992a1.11,1.11,0,0,0,1.118,1.118h4.5v3.146a.233.233,0,0,1-.234.234h-.832a2.5,2.5,0,0,0-2.158-1.248,2.558,2.558,0,0,0-2.158,1.248H23.684a2.5,2.5,0,0,0-2.158-1.248,2.558,2.558,0,0,0-2.158,1.248H16.976a.676.676,0,1,0,0,1.352H19.03a2.5,2.5,0,0,0,4.992,0h6.266a2.5,2.5,0,0,0,4.992,0h.546a1.592,1.592,0,0,0,1.586-1.586v-3.64A2.964,2.964,0,0,0,37.2,27.828ZM21.526,35.134A1.144,1.144,0,1,1,22.67,33.99,1.154,1.154,0,0,1,21.526,35.134Zm11.258,0a1.144,1.144,0,1,1,1.144-1.144A1.154,1.154,0,0,1,32.784,35.134ZM31.77,24.968h1.846a1.218,1.218,0,0,1,1.144.754l.988,2.288H31.77Z" transform="translate(-12.712 -21.9)" fill="#db327f"/>
      <path id="Path_190" data-name="Path 190" d="M12.976,34.152H17.76a.676.676,0,1,0,0-1.352H12.976a.671.671,0,0,0-.676.676A.688.688,0,0,0,12.976,34.152Z" transform="translate(-9.752 -29.966)" fill="#db327f"/>
      <path id="Path_191" data-name="Path 191" d="M8.076,44.152H12.86a.676.676,0,0,0,0-1.352H8.076a.671.671,0,0,0-.676.676A.688.688,0,0,0,8.076,44.152Z" transform="translate(-6.126 -37.366)" fill="#db327f"/>
      <path id="Path_192" data-name="Path 192" d="M8.662,53.476a.671.671,0,0,0-.676-.676H3.176a.676.676,0,1,0,0,1.352H7.96A.662.662,0,0,0,8.662,53.476Z" transform="translate(-2.5 -44.766)" fill="#db327f"/>
    </g>
  </g>
</svg>
