<svg xmlns="http://www.w3.org/2000/svg" xmlns:xlink="http://www.w3.org/1999/xlink" width="81.172" height="71.005" viewBox="0 0 81.172 71.005">
  <defs>
    <linearGradient id="linear-gradient" x1="6.289" y1="-27.141" x2="-10.431" y2="16.988" gradientUnits="objectBoundingBox">
      <stop offset="0" stop-color="#7c308f"/>
      <stop offset="1" stop-color="#db327f"/>
    </linearGradient>
  </defs>
  <g id="man" transform="translate(0 -32.063)">
    <g id="Group_2144" data-name="Group 2144" transform="translate(44.309 84.321)">
      <g id="Group_2143" data-name="Group 2143">
        <path id="Path_17405" data-name="Path 17405" d="M285.118,361.686h-4.45a1.189,1.189,0,1,0,0,2.378h4.45a1.189,1.189,0,0,0,0-2.378Z" transform="translate(-279.479 -361.686)" fill="url(#linear-gradient)"/>
      </g>
    </g>
    <g id="Group_2146" data-name="Group 2146" transform="translate(34.995 32.063)">
      <g id="Group_2145" data-name="Group 2145" transform="translate(0 0)">
        <path id="Path_17406" data-name="Path 17406" d="M261.873,71.594,255.4,69.1l-3.3-3.3a1.184,1.184,0,0,0-.764-.345V62.824a12.262,12.262,0,0,0,3.11-6.126,3.4,3.4,0,0,0,.834-.066,3.519,3.519,0,0,0,2.73-3.49v-.867a3.564,3.564,0,0,0-1.047-2.529c1.05-5.711.185-10.364-2.512-13.479-2.609-3.013-6.813-4.453-12.156-4.164a15.926,15.926,0,0,0-9.132,3.369,6.265,6.265,0,0,0-2.447.831c-1.321.792-2.895,2.457-2.895,5.887a29.692,29.692,0,0,0,.824,6.907,3.525,3.525,0,0,0-1.937,3.191v.854a3.519,3.519,0,0,0,2.73,3.49,3.4,3.4,0,0,0,.834.066,12.264,12.264,0,0,0,3.11,6.126v2.627a1.183,1.183,0,0,0-.764.345l-3.3,3.3-6.475,2.5a7.873,7.873,0,0,0-1.59.832,1.189,1.189,0,1,0,1.336,1.967,5.5,5.5,0,0,1,1.11-.581l6.009-2.318,4.594,6.892a3.4,3.4,0,0,0,2.5,1.5c.114.011.227.017.34.017a3.394,3.394,0,0,0,1.673-.443l-.986,22.365a1.189,1.189,0,0,0,1.136,1.24h.053a1.189,1.189,0,0,0,1.187-1.137l.915-20.759h2.468l.915,20.759a1.189,1.189,0,0,0,1.187,1.137h.053a1.189,1.189,0,0,0,1.136-1.24L245.9,79.464a3.394,3.394,0,0,0,1.673.443c.113,0,.227-.006.34-.017a3.4,3.4,0,0,0,2.5-1.5l4.594-6.892,6.009,2.318a5.473,5.473,0,0,1,2.139,1.491l-4.111,4.111a7.812,7.812,0,0,0-2.3,5.56v16.907a1.189,1.189,0,0,0,2.378,0V84.975a5.45,5.45,0,0,1,1.607-3.879l3.608-3.608a5.48,5.48,0,0,1,.19,1.662l-.921,22.684a1.189,1.189,0,0,0,1.14,1.236h.049a1.189,1.189,0,0,0,1.187-1.141l.921-22.684A7.861,7.861,0,0,0,261.873,71.594ZM232.6,56.207a2.315,2.315,0,0,0-2.408-1.887,1.02,1.02,0,0,1-.277-.019,1.153,1.153,0,0,1-.829-1.16v-.854a1.127,1.127,0,0,1,.839-1.131,1.034,1.034,0,0,1,1.018.39,1.658,1.658,0,0,0,2.279.358A8.633,8.633,0,0,0,235.17,50a1.189,1.189,0,0,0-1.908-1.419,6.312,6.312,0,0,1-.926,1,3.4,3.4,0,0,0-1.289-.689,27.348,27.348,0,0,1-.849-6.7c0-1.821.561-3.1,1.668-3.8a3.86,3.86,0,0,1,1.778-.57,1.2,1.2,0,0,0,.82-.328,13.394,13.394,0,0,1,7.958-3.011c4.582-.247,8.119.909,10.229,3.346,2.127,2.456,2.835,6.226,2.067,10.945a5.153,5.153,0,0,0-1.014.071l-1.117-2.683a1.19,1.19,0,0,0-1.4-.693c-.111.029-11.091,2.812-15.7-2.92a1.189,1.189,0,1,0-1.854,1.489c4.7,5.854,14.031,4.58,17.136,3.959l.864,2.074a1.955,1.955,0,0,0,2.258,1.158,2.566,2.566,0,0,1,.89-.065,1.122,1.122,0,0,1,.843,1.116v.867a1.153,1.153,0,0,1-.829,1.16,1.008,1.008,0,0,1-.277.019,2.316,2.316,0,0,0-2.408,1.887,9.922,9.922,0,0,1-19.517,0Zm5.275,21.019a1.036,1.036,0,0,1-1.594-.158l-4.629-6.943,1.861-1.861,7.106,6.218Zm3.355,1.571.072-1.634,1.057-1.057,1.057,1.057.072,1.634Zm1.129-5.953-6.6-5.773V64.794a12.306,12.306,0,0,0,13.2,0V67.07Zm6.078,4.225a1.036,1.036,0,0,1-1.594.158L244.1,74.481l7.106-6.218,1.861,1.861Z" transform="translate(-220.729 -32.066)" fill="url(#linear-gradient)"/>
      </g>
    </g>
    <g id="Group_2148" data-name="Group 2148" transform="translate(0 32.063)">
      <g id="Group_2147" data-name="Group 2147" transform="translate(0 0)">
        <path id="Path_17407" data-name="Path 17407" d="M37.708,77.823,31.9,75.289l-3.174-3.174a1.182,1.182,0,0,0-.764-.345V69.9a12.281,12.281,0,0,0,5.335-8,3.416,3.416,0,0,0,.938-.089,3.539,3.539,0,0,0,2.626-3.467v-.867a3.545,3.545,0,0,0-1.524-2.924,13.446,13.446,0,0,0,.411-3.294,13.863,13.863,0,0,0-6.677-11.756,7.709,7.709,0,0,0-7.862-7.444,7.709,7.709,0,0,0-7.862,7.444A13.864,13.864,0,0,0,6.675,51.263a13.445,13.445,0,0,0,.409,3.285,3.553,3.553,0,0,0-1.521,2.946v.854a3.539,3.539,0,0,0,2.626,3.467,3.41,3.41,0,0,0,.938.089,12.281,12.281,0,0,0,5.335,8V71.77a1.182,1.182,0,0,0-.764.345l-3.174,3.174L4.718,77.823a7.913,7.913,0,0,0-4.711,7.54l.7,16.566A1.189,1.189,0,0,0,1.9,103.068h.051a1.189,1.189,0,0,0,1.138-1.238l-.7-16.566a5.475,5.475,0,0,1,.754-2.995l3.121,3.745a6.61,6.61,0,0,1,1.529,4.224v11.643a1.189,1.189,0,0,0,2.378,0V90.237A8.993,8.993,0,0,0,8.085,84.49L4.767,80.509a5.391,5.391,0,0,1,.9-.506l5.06-2.209L14.3,83.6a2.3,2.3,0,0,0,3.453.543l2.266-1.933v19.671a1.189,1.189,0,1,0,2.378,0V82.208l2.266,1.933a2.3,2.3,0,0,0,3.453-.543l3.576-5.8L36.757,80a5.4,5.4,0,0,1,.9.506l-3.318,3.981a8.993,8.993,0,0,0-2.081,5.746v11.643a1.189,1.189,0,1,0,2.378,0V90.237a6.611,6.611,0,0,1,1.529-4.224l3.121-3.745a5.475,5.475,0,0,1,.754,2.995l-.7,16.566a1.189,1.189,0,0,0,1.138,1.238h.051a1.189,1.189,0,0,0,1.187-1.139l.7-16.566A7.914,7.914,0,0,0,37.708,77.823Zm-16.5-43.382a5.448,5.448,0,0,1,5.3,3.8,15.079,15.079,0,0,0-10.59,0A5.448,5.448,0,0,1,21.213,34.441ZM11.454,61.415a2.316,2.316,0,0,0-2.408-1.887,1.028,1.028,0,0,1-.311-.026,1.161,1.161,0,0,1-.8-1.153v-.854a1.127,1.127,0,0,1,.839-1.131,1.033,1.033,0,0,1,1.017.39,1.658,1.658,0,0,0,2.279.358A8.625,8.625,0,0,0,14,55.238a1.189,1.189,0,0,0-1.9-1.428,6.3,6.3,0,0,1-.907.975A3.407,3.407,0,0,0,9.4,54a11.074,11.074,0,0,1-.344-2.733c0-6.4,5.455-11.6,12.16-11.6s12.16,5.205,12.16,11.6a11.07,11.07,0,0,1-.343,2.728,5.454,5.454,0,0,0-.925.153l-.894-.735a2.283,2.283,0,0,0-1.587-.52c-1.748.1-10.7.34-15.291-5.156a1.189,1.189,0,0,0-1.825,1.525A16.993,16.993,0,0,0,22.382,54.7a29.1,29.1,0,0,0,7.342.56l1.395,1.147a1.187,1.187,0,0,0,1.352.11,2.624,2.624,0,0,1,1.172-.156,1.122,1.122,0,0,1,.843,1.116v.867a1.161,1.161,0,0,1-.8,1.153,1.017,1.017,0,0,1-.311.026,2.318,2.318,0,0,0-2.408,1.887,9.923,9.923,0,0,1-19.518,0Zm4.828,20.86-3.576-5.805,1.832-1.832,4.924,4.924Zm4.93-4.326L16.84,73.576v-2.46a12.293,12.293,0,0,0,8.746,0v2.46Zm4.93,4.326-3.18-2.713,4.924-4.924,1.832,1.832Z" transform="translate(0 -32.063)" fill="url(#linear-gradient)"/>
      </g>
    </g>
    <g id="Group_2150" data-name="Group 2150" transform="translate(12.237 89.566)">
      <g id="Group_2149" data-name="Group 2149">
        <path id="Path_17408" data-name="Path 17408" d="M81.71,394.766H78.373a1.189,1.189,0,1,0,0,2.378H81.71a1.189,1.189,0,1,0,0-2.378Z" transform="translate(-77.184 -394.766)" fill="url(#linear-gradient)"/>
      </g>
    </g>
  </g>
</svg>
