<svg xmlns="http://www.w3.org/2000/svg" xmlns:xlink="http://www.w3.org/1999/xlink" width="478.856" height="462.891" viewBox="0 0 478.856 462.891">
  <defs>
    <linearGradient id="linear-gradient" x1="1.138" y1="-0.333" x2="0.099" y2="1.487" gradientUnits="objectBoundingBox">
      <stop offset="0" stop-color="#7c308f"/>
      <stop offset="1" stop-color="#db327f"/>
    </linearGradient>
  </defs>
  <g id="money_1_" data-name="money (1)" transform="translate(0 -7.982)">
    <g id="Group_2164" data-name="Group 2164">
      <g id="Group_2163" data-name="Group 2163">
        <path id="Path_17415" data-name="Path 17415" d="M406.872,160.017H6.856A6.848,6.848,0,0,0,0,166.857V358.873a6.848,6.848,0,0,0,6.84,6.856H278.856a6.856,6.856,0,1,0,0-13.712H13.712V173.729H400v17.144a6.848,6.848,0,0,0,6.84,6.856h.016a6.848,6.848,0,0,0,6.856-6.84V166.873A6.849,6.849,0,0,0,406.872,160.017Z" fill="url(#linear-gradient)"/>
      </g>
    </g>
    <g id="Group_2166" data-name="Group 2166">
      <g id="Group_2165" data-name="Group 2165">
        <path id="Path_17416" data-name="Path 17416" d="M360.36,128.185l-320-72a6.855,6.855,0,0,0-8.2,5.2l-16,72a6.859,6.859,0,1,0,13.392,2.976l14.5-65.288,313.3,70.488a6.467,6.467,0,0,0,1.512.168,6.856,6.856,0,0,0,1.5-13.544Z" fill="url(#linear-gradient)"/>
      </g>
    </g>
    <g id="Group_2168" data-name="Group 2168">
      <g id="Group_2167" data-name="Group 2167">
        <path id="Path_17417" data-name="Path 17417" d="M321.5,88.513l-192-80a6.88,6.88,0,0,0-8.8,3.272l-16,32a6.88,6.88,0,1,0,12.1,6.544c.071-.131.138-.265.2-.4v.016l13.128-26.272L316.208,101.2a6.874,6.874,0,1,0,5.3-12.687Z" fill="url(#linear-gradient)"/>
      </g>
    </g>
    <g id="Group_2170" data-name="Group 2170">
      <g id="Group_2169" data-name="Group 2169">
        <path id="Path_17418" data-name="Path 17418" d="M326.352,192.017h-63.5a6.856,6.856,0,0,0,0,13.712h63.5a6.856,6.856,0,0,0,0-13.712Z" fill="url(#linear-gradient)"/>
      </g>
    </g>
    <g id="Group_2172" data-name="Group 2172">
      <g id="Group_2171" data-name="Group 2171">
        <path id="Path_17419" data-name="Path 17419" d="M198.856,192.473a70.4,70.4,0,1,0,70.4,70.4A70.4,70.4,0,0,0,198.856,192.473Zm0,128a57.6,57.6,0,1,1,57.6-57.6A57.6,57.6,0,0,1,198.856,320.473Z" fill="url(#linear-gradient)"/>
      </g>
    </g>
    <g id="Group_2174" data-name="Group 2174">
      <g id="Group_2173" data-name="Group 2173">
        <path id="Path_17420" data-name="Path 17420" d="M390.856,214.873c-42.4,0-88,10.016-88,32v192c0,21.984,45.6,32,88,32s88-10.016,88-32v-192C478.856,224.889,433.256,214.873,390.856,214.873Zm72,223.88c-1.208,4.44-25.2,16.12-72,16.12s-70.792-11.68-72-16V426.3c17.024,8.576,45.144,12.576,72,12.576s54.984-4.04,72-12.584Zm0-32c-1.208,4.44-25.2,16.12-72,16.12s-70.792-11.68-72-16V394.3c17.024,8.576,45.144,12.576,72,12.576s54.984-4.04,72-12.584Zm0-32c-1.208,4.44-25.2,16.12-72,16.12s-70.792-11.68-72-16V362.3c17.024,8.576,45.144,12.576,72,12.576s54.984-4.04,72-12.584Zm0-32c-1.208,4.44-25.2,16.12-72,16.12s-70.792-11.68-72-16V330.3c17.024,8.576,45.144,12.576,72,12.576s54.984-4.04,72-12.584Zm0-32c-1.208,4.44-25.2,16.12-72,16.12s-70.792-11.68-72-16V298.3c17.024,8.536,45.144,12.576,72,12.576s54.984-4.04,72-12.584Zm0-32c-1.208,4.44-25.2,16.12-72,16.12s-70.792-11.68-72-16V266.3c17.024,8.536,45.144,12.576,72,12.576s54.984-4.04,72-12.584Zm-72-15.88c-46.728,0-70.712-11.648-72-15.856v-.048c1.288-4.456,25.272-16.1,72-16.1,46.4,0,70.4,11.472,72,16C461.256,251.4,437.256,262.873,390.856,262.873Z" fill="url(#linear-gradient)"/>
      </g>
    </g>
    <g id="Group_2176" data-name="Group 2176">
      <g id="Group_2175" data-name="Group 2175">
        <path id="Path_17421" data-name="Path 17421" d="M134.856,320.009H74.384l-28.672-31.36v-52l31.664-30.92h57.48a6.856,6.856,0,1,0,0-13.712H74.592a6.863,6.863,0,0,0-4.8,1.944L34.056,228.817a8.594,8.594,0,0,0-2.064,5.6v56.9a6.861,6.861,0,0,0,1.792,4.624l32.5,35.552a6.855,6.855,0,0,0,5.064,2.232h63.5a6.856,6.856,0,1,0,0-13.712Z" fill="url(#linear-gradient)"/>
      </g>
    </g>
    <g id="Group_2178" data-name="Group 2178">
      <g id="Group_2177" data-name="Group 2177">
        <path id="Path_17422" data-name="Path 17422" d="M202.856,254.873h-8c-2.488,0-4-1.392-4-2s1.512-2,4-2h20a8,8,0,0,0,0-16h-8a8,8,0,0,0-16,0v.36a18.624,18.624,0,0,0-16,17.6,19.1,19.1,0,0,0,20,18.04h8c2.488,0,4,1.392,4,2s-1.512,2-4,2h-20a8,8,0,0,0,0,16h8a8,8,0,0,0,16,0v-.36a18.624,18.624,0,0,0,16-17.6A19.1,19.1,0,0,0,202.856,254.873Z" fill="url(#linear-gradient)"/>
      </g>
    </g>
  </g>
</svg>
