<svg xmlns="http://www.w3.org/2000/svg" width="48" height="47" viewBox="0 0 48 47">
  <g id="Group_210" data-name="Group 210" transform="translate(0.132 0.1)">
    <rect id="Rectangle_662" data-name="Rectangle 662" width="48" height="47" rx="10" transform="translate(-0.132 -0.1)" fill="#db327f" opacity="0.1"/>
    <g id="noun_guarantee_2519048" transform="translate(12.868 10.9)">
      <path id="Path_91" data-name="Path 91" d="M27.293,7.116l-10.6-3.083a.848.848,0,0,0-.484,0h0L5.6,7.116A.848.848,0,0,0,5,7.93v9.259c0,8.059,10.786,10.845,11.248,10.96a.831.831,0,0,0,.424,0c.662-.165,11.231-2.973,11.231-10.955V7.93A.848.848,0,0,0,27.293,7.116ZM26.207,17.189c0,6.192-8.33,8.864-9.755,9.259C15.027,26.053,6.7,23.394,6.7,17.189V8.571l9.755-2.842,9.755,2.837Z" transform="translate(-5 -3.997)" fill="#db327f"/>
      <path id="Path_92" data-name="Path 92" d="M27.141,18.848v.886a2.545,2.545,0,0,0,.424,5.051h1.272a.848.848,0,0,1,0,1.7H26.292a.848.848,0,1,0,0,1.7h.848v.848a.848.848,0,1,0,1.7,0v-.848a2.545,2.545,0,1,0,0-5.09H27.565a.848.848,0,0,1,0-1.7H30.11a.848.848,0,0,0,0-1.7H28.837v-.848a.848.848,0,1,0-1.7,0Z" transform="translate(-16.537 -12.061)" fill="#db327f"/>
    </g>
  </g>
</svg>
